<mxfile host="app.diagrams.net" agent="Mozilla/5.0 (Windows NT 10.0; Win64; x64) AppleWebKit/537.36 (KHTML, like Gecko) Chrome/131.0.0.0 Safari/537.36" version="24.8.8">
  <diagram name="Page-1" id="3y-iNl10yUWlcg77hvHn">
    <mxGraphModel dx="1434" dy="1880" grid="1" gridSize="10" guides="1" tooltips="1" connect="1" arrows="1" fold="1" page="1" pageScale="1" pageWidth="850" pageHeight="1100" math="0" shadow="0">
      <root>
        <mxCell id="0" />
        <mxCell id="1" parent="0" />
        <mxCell id="GsN0tR11UBXAh3amHyXG-2" value="Medecin" style="shape=umlActor;verticalLabelPosition=bottom;verticalAlign=top;html=1;outlineConnect=0;fillColor=#f5f5f5;strokeColor=#666666;gradientColor=#b3b3b3;" parent="1" vertex="1">
          <mxGeometry x="40" y="90" width="30" height="60" as="geometry" />
        </mxCell>
        <mxCell id="GsN0tR11UBXAh3amHyXG-3" value="Patient" style="shape=umlActor;verticalLabelPosition=bottom;verticalAlign=top;html=1;outlineConnect=0;fillColor=#f5f5f5;gradientColor=#b3b3b3;strokeColor=#666666;" parent="1" vertex="1">
          <mxGeometry x="50" y="340" width="30" height="60" as="geometry" />
        </mxCell>
        <mxCell id="Dab97rfjodDuptttudRy-1" value="Systeme Medical&amp;nbsp;" style="swimlane;whiteSpace=wrap;html=1;strokeColor=#6c8ebf;align=center;verticalAlign=middle;fontFamily=Helvetica;fontSize=12;fillColor=#dae8fc;" parent="1" vertex="1">
          <mxGeometry x="177" y="-120" width="563" height="780" as="geometry" />
        </mxCell>
        <mxCell id="Dab97rfjodDuptttudRy-2" value="Générer les factures" style="ellipse;whiteSpace=wrap;html=1;strokeColor=#d6b656;align=center;verticalAlign=middle;fontFamily=Helvetica;fontSize=12;fillColor=#fff2cc;fontStyle=1" parent="Dab97rfjodDuptttudRy-1" vertex="1">
          <mxGeometry x="70.00999999999999" y="40" width="120" height="40" as="geometry" />
        </mxCell>
        <mxCell id="Dab97rfjodDuptttudRy-3" value="Planifier les RDV" style="ellipse;whiteSpace=wrap;html=1;strokeColor=#d6b656;align=center;verticalAlign=middle;fontFamily=Helvetica;fontSize=12;fillColor=#fff2cc;fontStyle=1" parent="Dab97rfjodDuptttudRy-1" vertex="1">
          <mxGeometry x="76.25" y="86" width="120" height="30" as="geometry" />
        </mxCell>
        <mxCell id="Dab97rfjodDuptttudRy-4" value="Ajouter des examens medicaux" style="ellipse;whiteSpace=wrap;html=1;strokeColor=#d6b656;align=center;verticalAlign=middle;fontFamily=Helvetica;fontSize=12;fillColor=#fff2cc;fontStyle=1" parent="Dab97rfjodDuptttudRy-1" vertex="1">
          <mxGeometry x="41.25" y="130" width="190" height="30" as="geometry" />
        </mxCell>
        <mxCell id="Dab97rfjodDuptttudRy-5" value="Générer des rapports medicaux" style="ellipse;whiteSpace=wrap;html=1;strokeColor=#d6b656;align=center;verticalAlign=middle;fontFamily=Helvetica;fontSize=12;fillColor=#fff2cc;fontStyle=1" parent="Dab97rfjodDuptttudRy-1" vertex="1">
          <mxGeometry x="41.25" y="170" width="210" height="30" as="geometry" />
        </mxCell>
        <mxCell id="Dab97rfjodDuptttudRy-6" value="Consulter les allergies et traitement" style="ellipse;whiteSpace=wrap;html=1;strokeColor=#d6b656;align=center;verticalAlign=middle;fontFamily=Helvetica;fontSize=12;fillColor=#fff2cc;fontStyle=1" parent="Dab97rfjodDuptttudRy-1" vertex="1">
          <mxGeometry x="40" y="209" width="200" height="40" as="geometry" />
        </mxCell>
        <mxCell id="Dab97rfjodDuptttudRy-7" value="Consulter l&#39;historique des consultations" style="ellipse;whiteSpace=wrap;html=1;strokeColor=#d6b656;align=center;verticalAlign=middle;fontFamily=Helvetica;fontSize=12;fillColor=#fff2cc;fontStyle=1" parent="Dab97rfjodDuptttudRy-1" vertex="1">
          <mxGeometry x="28.759999999999998" y="360" width="222.5" height="40" as="geometry" />
        </mxCell>
        <mxCell id="Dab97rfjodDuptttudRy-8" value="telechager une copie du dossier medical" style="ellipse;whiteSpace=wrap;html=1;strokeColor=#d6b656;align=center;verticalAlign=middle;fontFamily=Helvetica;fontSize=12;fillColor=#fff2cc;fontStyle=1" parent="Dab97rfjodDuptttudRy-1" vertex="1">
          <mxGeometry x="22.5" y="410" width="257.5" height="40" as="geometry" />
        </mxCell>
        <mxCell id="Dab97rfjodDuptttudRy-9" value="recevoir des rappel de RDV" style="ellipse;whiteSpace=wrap;html=1;strokeColor=#d6b656;align=center;verticalAlign=middle;fontFamily=Helvetica;fontSize=12;fillColor=#fff2cc;fontStyle=1" parent="Dab97rfjodDuptttudRy-1" vertex="1">
          <mxGeometry x="31.88" y="460" width="196.25" height="30" as="geometry" />
        </mxCell>
        <mxCell id="Dab97rfjodDuptttudRy-10" value="Ajouter des notes et commentaires" style="ellipse;whiteSpace=wrap;html=1;strokeColor=#d6b656;align=center;verticalAlign=middle;fontFamily=Helvetica;fontSize=12;fillColor=#fff2cc;fontStyle=1" parent="Dab97rfjodDuptttudRy-1" vertex="1">
          <mxGeometry x="33.75" y="260" width="197.5" height="40" as="geometry" />
        </mxCell>
        <mxCell id="Dab97rfjodDuptttudRy-12" value="Imprimer le dossier medical complet" style="ellipse;whiteSpace=wrap;html=1;strokeColor=#d6b656;align=center;verticalAlign=middle;fontFamily=Helvetica;fontSize=12;fillColor=#fff2cc;fontStyle=1" parent="Dab97rfjodDuptttudRy-1" vertex="1">
          <mxGeometry x="31.88" y="310" width="238.12" height="30" as="geometry" />
        </mxCell>
        <mxCell id="Dab97rfjodDuptttudRy-17" value="Consulter les horaires de disponibilte des medecin" style="ellipse;whiteSpace=wrap;html=1;strokeColor=#d6b656;align=center;verticalAlign=middle;fontFamily=Helvetica;fontSize=12;fillColor=#fff2cc;fontStyle=1" parent="Dab97rfjodDuptttudRy-1" vertex="1">
          <mxGeometry x="16.25" y="500" width="303.75" height="40" as="geometry" />
        </mxCell>
        <mxCell id="Dab97rfjodDuptttudRy-18" value="consulter les résultats des examens medicaux" style="ellipse;whiteSpace=wrap;html=1;strokeColor=#d6b656;align=center;verticalAlign=middle;fontFamily=Helvetica;fontSize=12;fillColor=#fff2cc;fontStyle=1" parent="Dab97rfjodDuptttudRy-1" vertex="1">
          <mxGeometry x="10" y="550" width="300" height="40" as="geometry" />
        </mxCell>
        <mxCell id="Dab97rfjodDuptttudRy-21" value="Creer les utilisitateur et leurs droits d&#39;acces" style="ellipse;whiteSpace=wrap;html=1;strokeColor=#d6b656;align=center;verticalAlign=middle;fontFamily=Helvetica;fontSize=12;fillColor=#fff2cc;fontStyle=1" parent="Dab97rfjodDuptttudRy-1" vertex="1">
          <mxGeometry x="13.75" y="710" width="296.25" height="30" as="geometry" />
        </mxCell>
        <mxCell id="Dab97rfjodDuptttudRy-20" value="Mettre a jour les informations personnelles" style="ellipse;whiteSpace=wrap;html=1;strokeColor=#d6b656;align=center;verticalAlign=middle;fontFamily=Helvetica;fontSize=12;fillColor=#fff2cc;fontStyle=1" parent="Dab97rfjodDuptttudRy-1" vertex="1">
          <mxGeometry x="18.13" y="660" width="291.87" height="30" as="geometry" />
        </mxCell>
        <mxCell id="Dab97rfjodDuptttudRy-19" value="Demander un RDV en ligne" style="ellipse;whiteSpace=wrap;html=1;strokeColor=#d6b656;align=center;verticalAlign=middle;fontFamily=Helvetica;fontSize=12;fillColor=#fff2cc;fontStyle=1" parent="Dab97rfjodDuptttudRy-1" vertex="1">
          <mxGeometry x="36.879999999999995" y="614" width="206.25" height="30" as="geometry" />
        </mxCell>
        <mxCell id="fqJMKqmui66cX7L3ksRn-2" value="Verifier Mot de Passe" style="ellipse;whiteSpace=wrap;html=1;strokeColor=#d6b656;align=center;verticalAlign=middle;fontFamily=Helvetica;fontSize=12;fillColor=#fff2cc;fontStyle=1" parent="Dab97rfjodDuptttudRy-1" vertex="1">
          <mxGeometry x="446.25" y="209" width="116.75" height="40" as="geometry" />
        </mxCell>
        <mxCell id="fqJMKqmui66cX7L3ksRn-1" value="S&#39;authentifier" style="ellipse;whiteSpace=wrap;html=1;strokeColor=#d6b656;align=center;verticalAlign=middle;fontFamily=Helvetica;fontSize=12;fillColor=#fff2cc;fontStyle=1" parent="Dab97rfjodDuptttudRy-1" vertex="1">
          <mxGeometry x="353" y="290" width="125.63" height="60" as="geometry" />
        </mxCell>
        <mxCell id="fqJMKqmui66cX7L3ksRn-13" value="" style="html=1;verticalAlign=bottom;endArrow=block;curved=0;rounded=0;entryX=0;entryY=0.5;entryDx=0;entryDy=0;" parent="Dab97rfjodDuptttudRy-1" target="Dab97rfjodDuptttudRy-8" edge="1">
          <mxGeometry width="80" relative="1" as="geometry">
            <mxPoint x="-87" y="490" as="sourcePoint" />
            <mxPoint x="54" y="520" as="targetPoint" />
          </mxGeometry>
        </mxCell>
        <mxCell id="fqJMKqmui66cX7L3ksRn-24" value="" style="endArrow=open;endSize=12;dashed=1;html=1;rounded=0;exitX=1;exitY=1;exitDx=0;exitDy=0;entryX=0.707;entryY=0.003;entryDx=0;entryDy=0;entryPerimeter=0;" parent="Dab97rfjodDuptttudRy-1" source="Dab97rfjodDuptttudRy-2" target="fqJMKqmui66cX7L3ksRn-1" edge="1">
          <mxGeometry x="-0.1726" y="1" width="160" relative="1" as="geometry">
            <mxPoint x="293" y="144.5" as="sourcePoint" />
            <mxPoint x="453" y="144.5" as="targetPoint" />
            <Array as="points">
              <mxPoint x="273" y="90" />
              <mxPoint x="373" y="130" />
              <mxPoint x="416" y="170" />
            </Array>
            <mxPoint as="offset" />
          </mxGeometry>
        </mxCell>
        <mxCell id="fqJMKqmui66cX7L3ksRn-26" value="" style="endArrow=open;endSize=12;dashed=1;html=1;rounded=0;exitX=1;exitY=1;exitDx=0;exitDy=0;entryX=0.592;entryY=0.03;entryDx=0;entryDy=0;entryPerimeter=0;" parent="Dab97rfjodDuptttudRy-1" source="Dab97rfjodDuptttudRy-3" target="fqJMKqmui66cX7L3ksRn-1" edge="1">
          <mxGeometry x="-0.1726" y="1" width="160" relative="1" as="geometry">
            <mxPoint x="196.25" y="116" as="sourcePoint" />
            <mxPoint x="466.25" y="332" as="targetPoint" />
            <Array as="points">
              <mxPoint x="283" y="112" />
              <mxPoint x="333" y="140" />
              <mxPoint x="397" y="180" />
            </Array>
            <mxPoint as="offset" />
          </mxGeometry>
        </mxCell>
        <mxCell id="fqJMKqmui66cX7L3ksRn-27" value="" style="endArrow=open;endSize=12;dashed=1;html=1;rounded=0;exitX=1;exitY=0.5;exitDx=0;exitDy=0;entryX=0.427;entryY=-0.023;entryDx=0;entryDy=0;entryPerimeter=0;" parent="Dab97rfjodDuptttudRy-1" source="Dab97rfjodDuptttudRy-5" target="fqJMKqmui66cX7L3ksRn-1" edge="1">
          <mxGeometry x="-0.1726" y="1" width="160" relative="1" as="geometry">
            <mxPoint x="241" y="155" as="sourcePoint" />
            <mxPoint x="433" y="300" as="targetPoint" />
            <Array as="points">
              <mxPoint x="353" y="230" />
            </Array>
            <mxPoint as="offset" />
          </mxGeometry>
        </mxCell>
        <mxCell id="fqJMKqmui66cX7L3ksRn-28" value="" style="endArrow=open;endSize=12;dashed=1;html=1;rounded=0;exitX=1;exitY=0.5;exitDx=0;exitDy=0;entryX=0.306;entryY=0.017;entryDx=0;entryDy=0;entryPerimeter=0;" parent="Dab97rfjodDuptttudRy-1" source="Dab97rfjodDuptttudRy-6" target="fqJMKqmui66cX7L3ksRn-1" edge="1">
          <mxGeometry x="-0.1726" y="1" width="160" relative="1" as="geometry">
            <mxPoint x="261" y="195" as="sourcePoint" />
            <mxPoint x="417" y="299" as="targetPoint" />
            <Array as="points">
              <mxPoint x="353" y="260" />
            </Array>
            <mxPoint as="offset" />
          </mxGeometry>
        </mxCell>
        <mxCell id="fqJMKqmui66cX7L3ksRn-29" value="" style="endArrow=open;endSize=12;dashed=1;html=1;rounded=0;exitX=1;exitY=0.5;exitDx=0;exitDy=0;entryX=0;entryY=0;entryDx=0;entryDy=0;" parent="Dab97rfjodDuptttudRy-1" source="Dab97rfjodDuptttudRy-10" target="fqJMKqmui66cX7L3ksRn-1" edge="1">
          <mxGeometry x="-0.1726" y="1" width="160" relative="1" as="geometry">
            <mxPoint x="250" y="239" as="sourcePoint" />
            <mxPoint x="401" y="301" as="targetPoint" />
            <Array as="points" />
            <mxPoint as="offset" />
          </mxGeometry>
        </mxCell>
        <mxCell id="fqJMKqmui66cX7L3ksRn-3" value="Assistant Medical" style="shape=umlActor;verticalLabelPosition=bottom;verticalAlign=top;html=1;outlineConnect=0;fillColor=#f5f5f5;gradientColor=#b3b3b3;strokeColor=#666666;" parent="1" vertex="1">
          <mxGeometry x="770" y="-70" width="30" height="60" as="geometry" />
        </mxCell>
        <mxCell id="fqJMKqmui66cX7L3ksRn-4" value="Administrateur" style="shape=umlActor;verticalLabelPosition=bottom;verticalAlign=top;html=1;outlineConnect=0;fillColor=#f5f5f5;gradientColor=#b3b3b3;strokeColor=#666666;" parent="1" vertex="1">
          <mxGeometry x="770" y="512" width="30" height="60" as="geometry" />
        </mxCell>
        <mxCell id="fqJMKqmui66cX7L3ksRn-6" value="" style="endArrow=classic;html=1;rounded=0;textShadow=1;entryX=1;entryY=0.5;entryDx=0;entryDy=0;" parent="1" target="Dab97rfjodDuptttudRy-2" edge="1">
          <mxGeometry width="50" height="50" relative="1" as="geometry">
            <mxPoint x="760" y="-20" as="sourcePoint" />
            <mxPoint x="746" y="40" as="targetPoint" />
          </mxGeometry>
        </mxCell>
        <mxCell id="fqJMKqmui66cX7L3ksRn-7" value="" style="html=1;verticalAlign=bottom;endArrow=block;curved=0;rounded=0;entryX=0;entryY=0.5;entryDx=0;entryDy=0;" parent="1" target="Dab97rfjodDuptttudRy-5" edge="1">
          <mxGeometry width="80" relative="1" as="geometry">
            <mxPoint x="70" y="130" as="sourcePoint" />
            <mxPoint x="150" y="130" as="targetPoint" />
          </mxGeometry>
        </mxCell>
        <mxCell id="fqJMKqmui66cX7L3ksRn-8" value="" style="html=1;verticalAlign=bottom;endArrow=block;curved=0;rounded=0;entryX=0;entryY=0.5;entryDx=0;entryDy=0;" parent="1" target="Dab97rfjodDuptttudRy-4" edge="1">
          <mxGeometry width="80" relative="1" as="geometry">
            <mxPoint x="70" y="130" as="sourcePoint" />
            <mxPoint x="218" y="75" as="targetPoint" />
          </mxGeometry>
        </mxCell>
        <mxCell id="fqJMKqmui66cX7L3ksRn-9" value="" style="html=1;verticalAlign=bottom;endArrow=block;curved=0;rounded=0;entryX=0;entryY=0.5;entryDx=0;entryDy=0;" parent="1" target="Dab97rfjodDuptttudRy-6" edge="1">
          <mxGeometry width="80" relative="1" as="geometry">
            <mxPoint x="70" y="130" as="sourcePoint" />
            <mxPoint x="238" y="85" as="targetPoint" />
          </mxGeometry>
        </mxCell>
        <mxCell id="fqJMKqmui66cX7L3ksRn-10" value="" style="html=1;verticalAlign=bottom;endArrow=block;curved=0;rounded=0;entryX=0;entryY=0.5;entryDx=0;entryDy=0;" parent="1" target="Dab97rfjodDuptttudRy-10" edge="1">
          <mxGeometry width="80" relative="1" as="geometry">
            <mxPoint x="70" y="130" as="sourcePoint" />
            <mxPoint x="248" y="95" as="targetPoint" />
          </mxGeometry>
        </mxCell>
        <mxCell id="fqJMKqmui66cX7L3ksRn-11" value="" style="html=1;verticalAlign=bottom;endArrow=block;curved=0;rounded=0;entryX=0;entryY=0.5;entryDx=0;entryDy=0;" parent="1" target="Dab97rfjodDuptttudRy-12" edge="1">
          <mxGeometry width="80" relative="1" as="geometry">
            <mxPoint x="70" y="130" as="sourcePoint" />
            <mxPoint x="221" y="170" as="targetPoint" />
          </mxGeometry>
        </mxCell>
        <mxCell id="fqJMKqmui66cX7L3ksRn-12" value="" style="html=1;verticalAlign=bottom;endArrow=block;curved=0;rounded=0;entryX=0;entryY=0.5;entryDx=0;entryDy=0;" parent="1" target="Dab97rfjodDuptttudRy-7" edge="1">
          <mxGeometry width="80" relative="1" as="geometry">
            <mxPoint x="70" y="130" as="sourcePoint" />
            <mxPoint x="231" y="220" as="targetPoint" />
          </mxGeometry>
        </mxCell>
        <mxCell id="fqJMKqmui66cX7L3ksRn-14" value="" style="html=1;verticalAlign=bottom;endArrow=block;curved=0;rounded=0;entryX=0.038;entryY=0.607;entryDx=0;entryDy=0;entryPerimeter=0;" parent="1" target="Dab97rfjodDuptttudRy-9" edge="1">
          <mxGeometry width="80" relative="1" as="geometry">
            <mxPoint x="90" y="370" as="sourcePoint" />
            <mxPoint x="210" y="320" as="targetPoint" />
          </mxGeometry>
        </mxCell>
        <mxCell id="fqJMKqmui66cX7L3ksRn-15" value="" style="html=1;verticalAlign=bottom;endArrow=block;curved=0;rounded=0;entryX=0;entryY=0.5;entryDx=0;entryDy=0;" parent="1" target="Dab97rfjodDuptttudRy-17" edge="1">
          <mxGeometry width="80" relative="1" as="geometry">
            <mxPoint x="90" y="370" as="sourcePoint" />
            <mxPoint x="220" y="330" as="targetPoint" />
          </mxGeometry>
        </mxCell>
        <mxCell id="fqJMKqmui66cX7L3ksRn-16" value="" style="html=1;verticalAlign=bottom;endArrow=block;curved=0;rounded=0;entryX=0;entryY=0.5;entryDx=0;entryDy=0;" parent="1" target="Dab97rfjodDuptttudRy-18" edge="1">
          <mxGeometry width="80" relative="1" as="geometry">
            <mxPoint x="90" y="370" as="sourcePoint" />
            <mxPoint x="150" y="440" as="targetPoint" />
          </mxGeometry>
        </mxCell>
        <mxCell id="fqJMKqmui66cX7L3ksRn-18" value="" style="html=1;verticalAlign=bottom;endArrow=block;curved=0;rounded=0;entryX=0;entryY=0.5;entryDx=0;entryDy=0;" parent="1" target="Dab97rfjodDuptttudRy-19" edge="1">
          <mxGeometry width="80" relative="1" as="geometry">
            <mxPoint x="90" y="370" as="sourcePoint" />
            <mxPoint x="187" y="480" as="targetPoint" />
          </mxGeometry>
        </mxCell>
        <mxCell id="fqJMKqmui66cX7L3ksRn-19" value="" style="html=1;verticalAlign=bottom;endArrow=block;curved=0;rounded=0;entryX=0;entryY=0.5;entryDx=0;entryDy=0;" parent="1" target="Dab97rfjodDuptttudRy-20" edge="1">
          <mxGeometry width="80" relative="1" as="geometry">
            <mxPoint x="90" y="370" as="sourcePoint" />
            <mxPoint x="177" y="500" as="targetPoint" />
          </mxGeometry>
        </mxCell>
        <mxCell id="fqJMKqmui66cX7L3ksRn-20" value="" style="html=1;verticalAlign=bottom;endArrow=block;curved=0;rounded=0;entryX=1;entryY=0.5;entryDx=0;entryDy=0;" parent="1" target="Dab97rfjodDuptttudRy-21" edge="1">
          <mxGeometry width="80" relative="1" as="geometry">
            <mxPoint x="753" y="560" as="sourcePoint" />
            <mxPoint x="850" y="640" as="targetPoint" />
          </mxGeometry>
        </mxCell>
        <mxCell id="fqJMKqmui66cX7L3ksRn-21" value="" style="endArrow=classic;html=1;rounded=0;textShadow=1;entryX=1;entryY=0.5;entryDx=0;entryDy=0;" parent="1" target="Dab97rfjodDuptttudRy-3" edge="1">
          <mxGeometry width="50" height="50" relative="1" as="geometry">
            <mxPoint x="760" y="-20" as="sourcePoint" />
            <mxPoint x="377" y="-50" as="targetPoint" />
          </mxGeometry>
        </mxCell>
        <mxCell id="fqJMKqmui66cX7L3ksRn-25" value="" style="endArrow=open;endSize=12;dashed=1;html=1;rounded=0;exitX=1;exitY=0.5;exitDx=0;exitDy=0;" parent="1" source="Dab97rfjodDuptttudRy-4" edge="1">
          <mxGeometry x="-0.1726" y="1" width="160" relative="1" as="geometry">
            <mxPoint x="359" y="-36" as="sourcePoint" />
            <mxPoint x="600" y="170" as="targetPoint" />
            <Array as="points">
              <mxPoint x="490" y="40" />
              <mxPoint x="540" y="80" />
            </Array>
            <mxPoint as="offset" />
          </mxGeometry>
        </mxCell>
      </root>
    </mxGraphModel>
  </diagram>
</mxfile>
